# Blender 4.5.3 LTS
# www.blender.org
mtllib singlespike.mtl
o SpikeSingle
v 0.002568 1.698576 0.311002
v 0.001817 1.678863 0.334806
v 0.004082 1.701206 0.313666
v -0.003879 1.676591 0.332331
v -0.002254 1.698570 0.310926
v -0.009513 1.678869 0.334668
v -0.003718 1.701197 0.313545
v -0.007297 1.682543 0.338587
v 0.000198 1.702824 0.315238
v -0.000297 1.682539 0.338671
v -0.006426 1.639923 0.386146
v -0.002863 1.634091 0.379355
v -0.018380 1.639968 0.386087
v -0.012746 1.592929 0.433121
v -0.007575 1.584980 0.422912
v -0.030304 1.593037 0.433154
v -0.018682 1.540749 0.479306
v -0.011783 1.530819 0.465291
v -0.042311 1.540925 0.479495
v -0.023206 1.482159 0.524411
v -0.014479 1.470450 0.506312
v -0.053196 1.482394 0.524797
v -0.024492 1.417678 0.569528
v -0.013593 1.404659 0.547262
v -0.061369 1.417569 0.569894
v -0.019309 1.352141 0.623375
v -0.004464 1.338452 0.597066
v -0.065755 1.350574 0.622475
v -0.009267 1.272128 0.678427
v 0.010687 1.258151 0.647923
v -0.066171 1.270221 0.675500
v 0.003364 1.178674 0.711182
v 0.025485 1.165295 0.674606
v -0.059009 1.177074 0.707793
v 0.020357 1.090545 0.746181
v 0.050342 1.079092 0.704779
v -0.051286 1.087204 0.740074
v 0.038140 1.001979 0.775973
v 0.074799 0.989855 0.726399
v -0.045281 0.999444 0.767768
v 0.047902 0.912160 0.786804
v 0.084222 0.901750 0.725689
v -0.042650 0.911958 0.781031
v 0.054089 0.821810 0.782569
v 0.089392 0.816214 0.716153
v -0.039912 0.824457 0.781236
v 0.054077 0.742047 0.774465
v 0.088771 0.738634 0.707846
v -0.042721 0.744096 0.773396
v 0.042706 0.668116 0.765032
v 0.083961 0.673717 0.697704
v -0.053921 0.667755 0.761454
v 0.031382 0.593214 0.757583
v 0.086466 0.613316 0.681951
v -0.061257 0.593156 0.748043
v 0.042043 0.507200 0.735384
v 0.097335 0.527511 0.650974
v -0.053786 0.516931 0.725561
v 0.062707 0.430242 0.692543
v 0.110239 0.458391 0.612091
v -0.036176 0.437726 0.688450
v 0.076651 0.359542 0.635502
v 0.127605 0.401386 0.557575
v -0.027897 0.360463 0.632760
v 0.091280 0.287385 0.571979
v 0.143616 0.338235 0.487382
v -0.025386 0.286090 0.567926
v 0.101275 0.193507 0.509818
v 0.154875 0.253953 0.420084
v -0.023051 0.195067 0.506044
v 0.096065 0.094435 0.440815
v 0.152152 0.163691 0.356734
v -0.025054 0.099695 0.436149
v 0.088482 0.014351 0.345563
v 0.136523 0.083169 0.272075
v -0.030721 0.018699 0.343314
v 0.077186 -0.063138 0.244009
v 0.118928 0.005185 0.183940
v -0.038620 -0.061485 0.242579
v -0.071725 0.007739 0.183007
v -0.064222 0.087232 0.273097
v 0.023304 0.050033 0.145659
v 0.033928 0.130193 0.226586
v 0.044502 0.210187 0.304120
v 0.044992 0.290164 0.364275
v -0.057092 0.166770 0.357327
v -0.056767 0.251761 0.421790
v -0.055269 0.335623 0.482933
v -0.049578 0.403697 0.551237
v 0.043483 0.368623 0.427118
v 0.044801 0.431929 0.498227
v 0.034311 0.489848 0.561308
v 0.014330 0.552547 0.603933
v -0.055407 0.469039 0.613375
v -0.073148 0.537707 0.656590
v -0.084411 0.604487 0.682803
v -0.081965 0.671228 0.698999
v 0.000575 0.614828 0.637548
v 0.002133 0.673473 0.657540
v 0.011742 0.739089 0.668776
v 0.015519 0.815039 0.678368
v -0.071490 0.742778 0.711062
v -0.065603 0.819593 0.719557
v -0.066752 0.902425 0.722436
v -0.066657 0.986661 0.716408
v 0.011261 0.896441 0.688692
v 0.006995 0.981272 0.692230
v -0.009303 1.068692 0.674738
v -0.026374 1.155306 0.649349
v -0.071299 1.073474 0.696066
v -0.077828 1.162433 0.669458
v -0.083075 1.254954 0.643226
v -0.080445 1.335881 0.595661
v -0.036456 1.247902 0.626789
v -0.042965 1.328436 0.580021
v -0.044069 1.396466 0.533867
v -0.039194 1.463429 0.495501
v -0.073629 1.404481 0.547909
v -0.063194 1.470842 0.506962
v -0.050119 1.531110 0.465604
v -0.036033 1.585157 0.422964
v -0.031206 1.524839 0.456806
v -0.021962 1.580161 0.416625
v -0.012623 1.630523 0.375093
v -0.022222 1.634163 0.379256
vn 0.9253 -0.3058 -0.2241
vn 0.5037 -0.6731 -0.5415
vn 0.0121 -0.6981 -0.7159
vn -0.5010 -0.5845 -0.6382
vn -0.9144 -0.1264 -0.3845
vn -0.5040 0.7256 0.4685
vn -0.9104 0.3834 0.1555
vn -0.0075 0.7561 0.6544
vn 0.5018 0.6487 0.5722
vn 0.9282 0.2092 0.3077
vn 0.9274 0.2031 0.3140
vn -0.0032 0.7447 0.6674
vn 0.9276 0.1942 0.3192
vn 0.0030 0.7072 0.7070
vn 0.9272 0.1835 0.3266
vn 0.0086 0.6628 0.7488
vn 0.9268 0.1817 0.3286
vn 0.0132 0.6099 0.7924
vn 0.9237 0.2092 0.3209
vn 0.0103 0.5716 0.8204
vn 0.8972 0.3292 0.2945
vn -0.0176 0.6260 0.7796
vn 0.8622 0.3665 0.3497
vn -0.0494 0.5562 0.8296
vn 0.8618 0.2649 0.4325
vn -0.0595 0.3229 0.9445
vn 0.8244 0.3609 0.4360
vn -0.0790 0.3428 0.9361
vn 0.7995 0.3342 0.4991
vn -0.0989 0.2964 0.9499
vn 0.8399 0.1207 0.5292
vn -0.0814 0.1286 0.9883
vn 0.8727 0.0182 0.4879
vn -0.0388 -0.0246 0.9989
vn 0.8823 -0.0523 0.4678
vn -0.0150 -0.0988 0.9950
vn 0.8587 -0.1683 0.4841
vn -0.0250 -0.1371 0.9902
vn 0.8324 -0.1459 0.5347
vn -0.0683 -0.1295 0.9892
vn 0.8292 -0.0678 0.5548
vn -0.1122 -0.2755 0.9547
vn 0.8566 -0.0876 0.5085
vn -0.1044 -0.4734 0.8747
vn 0.8692 -0.1869 0.4579
vn -0.0518 -0.6101 0.7906
vn 0.8753 -0.2248 0.4281
vn -0.0219 -0.6602 0.7508
vn 0.8885 -0.1956 0.4151
vn -0.0275 -0.5582 0.8293
vn 0.8922 -0.2832 0.3517
vn -0.0441 -0.5796 0.8137
vn 0.8866 -0.3959 0.2390
vn -0.0490 -0.7569 0.6517
vn 0.8962 -0.4002 0.1915
vn -0.0297 -0.7870 0.6162
vn -0.9426 -0.2148 0.2558
vn -0.5253 0.6491 -0.5503
vn 0.5298 0.5734 -0.6248
vn 0.5414 0.5522 -0.6340
vn -0.5479 0.6248 -0.5562
vn 0.5309 0.4910 -0.6907
vn -0.5606 0.5009 -0.6594
vn -0.9507 -0.1923 0.2431
vn -0.9520 -0.1748 0.2512
vn -0.9527 -0.1779 0.2464
vn -0.5539 0.5054 -0.6616
vn -0.9642 -0.1694 0.2042
vn -0.5224 0.6335 -0.5707
vn 0.5303 0.5545 -0.6413
vn 0.5564 0.6471 -0.5213
vn 0.5900 0.6429 -0.4885
vn -0.5155 0.5761 -0.6343
vn 0.5731 0.5296 -0.6253
vn -0.5276 0.3533 -0.7725
vn -0.9646 -0.2179 0.1483
vn -0.9422 -0.3029 0.1429
vn -0.9456 -0.2089 0.2496
vn -0.5045 0.2807 -0.8165
vn -0.9286 -0.0134 0.3708
vn -0.4559 0.2602 -0.8512
vn 0.4826 0.4163 -0.7705
vn 0.4361 0.2620 -0.8609
vn 0.4443 0.0968 -0.8906
vn -0.4359 0.2124 -0.8746
vn 0.4516 0.0905 -0.8876
vn -0.4435 0.1330 -0.8863
vn -0.9077 0.0658 0.4144
vn -0.9157 0.0089 0.4017
vn -0.9225 -0.0271 0.3851
vn -0.4221 0.0588 -0.9046
vn -0.9257 0.0287 0.3771
vn -0.3582 -0.0226 -0.9334
vn 0.4454 0.1305 -0.8858
vn 0.4459 0.0572 -0.8932
vn 0.4588 -0.0899 -0.8840
vn -0.3249 -0.2378 -0.9154
vn 0.4624 -0.1677 -0.8706
vn -0.3547 -0.3090 -0.8824
vn -0.9212 0.0500 0.3859
vn -0.9108 0.0618 0.4082
vn -0.9021 0.0737 0.4252
vn -0.3701 -0.2653 -0.8903
vn -0.9014 0.2413 0.3596
vn -0.3840 -0.4726 -0.7932
vn 0.4467 -0.1731 -0.8778
vn 0.4506 -0.4181 -0.7888
vn 0.4569 -0.4940 -0.7398
vn -0.4447 -0.4946 -0.7467
vn 0.4600 -0.4656 -0.7561
vn -0.4856 -0.4051 -0.7747
vn -0.8959 0.3097 0.3185
vn -0.8969 0.3244 0.3006
vn -0.8947 0.3666 0.2552
vn -0.4933 -0.4169 -0.7634
vn -0.8935 0.3964 0.2110
vn -0.4951 -0.4549 -0.7402
vn 0.4662 -0.5128 -0.7209
vn 0.4751 -0.5663 -0.6735
vn 0.4856 -0.6068 -0.6292
vn -0.4969 -0.4954 -0.7125
vn 0.4973 -0.6383 -0.5876
vn -0.4989 -0.5368 -0.6804
vn -0.9017 0.4051 0.1510
vn -0.8961 0.4073 0.1764
vt 0.000000 0.000000
vt 0.000000 0.200000
vt 0.021277 0.100000
vt 0.021277 0.900000
vt 0.000000 0.800000
vt 0.000000 1.000000
vt 0.021277 0.700000
vt 0.000000 0.600000
vt 0.000000 0.400000
vt 0.021277 0.500000
vt 0.021277 0.300000
vt 0.063830 0.300000
vt 0.063830 0.100000
vt 0.063830 0.500000
vt 0.106383 0.300000
vt 0.106383 0.100000
vt 0.106383 0.500000
vt 0.148936 0.300000
vt 0.148936 0.100000
vt 0.148936 0.500000
vt 0.191489 0.300000
vt 0.191489 0.100000
vt 0.191489 0.500000
vt 0.234043 0.300000
vt 0.234043 0.100000
vt 0.234043 0.500000
vt 0.276596 0.300000
vt 0.276596 0.100000
vt 0.276596 0.500000
vt 0.319149 0.300000
vt 0.319149 0.100000
vt 0.319149 0.500000
vt 0.361702 0.300000
vt 0.361702 0.100000
vt 0.361702 0.500000
vt 0.404255 0.300000
vt 0.404255 0.100000
vt 0.404255 0.500000
vt 0.446809 0.300000
vt 0.446809 0.100000
vt 0.446809 0.500000
vt 0.489362 0.300000
vt 0.489362 0.100000
vt 0.489362 0.500000
vt 0.531915 0.300000
vt 0.531915 0.100000
vt 0.531915 0.500000
vt 0.574468 0.300000
vt 0.574468 0.100000
vt 0.574468 0.500000
vt 0.617021 0.300000
vt 0.617021 0.100000
vt 0.617021 0.500000
vt 0.659574 0.300000
vt 0.659574 0.100000
vt 0.659574 0.500000
vt 0.702128 0.300000
vt 0.702128 0.100000
vt 0.702128 0.500000
vt 0.744681 0.300000
vt 0.744681 0.100000
vt 0.744681 0.500000
vt 0.787234 0.300000
vt 0.787234 0.100000
vt 0.787234 0.500000
vt 0.829787 0.300000
vt 0.829787 0.100000
vt 0.829787 0.500000
vt 0.872340 0.300000
vt 0.872340 0.100000
vt 0.872340 0.500000
vt 0.914894 0.300000
vt 0.914894 0.100000
vt 0.914894 0.500000
vt 0.957447 0.300000
vt 0.957447 0.100000
vt 0.957447 0.500000
vt 1.000000 0.100000
vt 1.000000 0.300000
vt 1.000000 0.500000
vt 0.957447 0.700000
vt 1.000000 0.700000
vt 0.957447 0.900000
vt 1.000000 0.900000
vt 0.914894 0.900000
vt 0.914894 0.700000
vt 0.872340 0.900000
vt 0.872340 0.700000
vt 0.829787 0.700000
vt 0.829787 0.900000
vt 0.787234 0.700000
vt 0.787234 0.900000
vt 0.744681 0.900000
vt 0.744681 0.700000
vt 0.702128 0.900000
vt 0.702128 0.700000
vt 0.659574 0.700000
vt 0.659574 0.900000
vt 0.617021 0.700000
vt 0.617021 0.900000
vt 0.574468 0.900000
vt 0.574468 0.700000
vt 0.531915 0.900000
vt 0.531915 0.700000
vt 0.489362 0.700000
vt 0.489362 0.900000
vt 0.446809 0.700000
vt 0.446809 0.900000
vt 0.404255 0.900000
vt 0.404255 0.700000
vt 0.361702 0.900000
vt 0.361702 0.700000
vt 0.319149 0.700000
vt 0.319149 0.900000
vt 0.276596 0.700000
vt 0.276596 0.900000
vt 0.234043 0.900000
vt 0.234043 0.700000
vt 0.191489 0.900000
vt 0.191489 0.700000
vt 0.148936 0.700000
vt 0.148936 0.900000
vt 0.106383 0.700000
vt 0.106383 0.900000
vt 0.063830 0.900000
vt 0.063830 0.700000
s 0
f 1/1/1 3/2/1 2/3/1
f 4/4/2 1/1/2 2/3/2
f 4/4/3 5/5/3 1/6/3
f 6/7/4 5/5/4 4/4/4
f 7/8/5 5/5/5 6/7/5
f 9/9/6 7/8/6 8/10/6
f 8/10/7 7/8/7 6/7/7
f 10/11/8 9/9/8 8/10/8
f 3/2/9 9/9/9 10/11/9
f 2/3/10 10/11/10 11/12/10 12/13/10
f 2/3/11 3/2/11 10/11/11
f 10/11/12 8/10/12 13/14/12 11/12/12
f 12/13/13 11/12/13 14/15/13 15/16/13
f 11/12/14 13/14/14 16/17/14 14/15/14
f 15/16/15 14/15/15 17/18/15 18/19/15
f 14/15/16 16/17/16 19/20/16 17/18/16
f 18/19/17 17/18/17 20/21/17 21/22/17
f 17/18/18 19/20/18 22/23/18 20/21/18
f 21/22/19 20/21/19 23/24/19 24/25/19
f 20/21/20 22/23/20 25/26/20 23/24/20
f 24/25/21 23/24/21 26/27/21 27/28/21
f 23/24/22 25/26/22 28/29/22 26/27/22
f 27/28/23 26/27/23 29/30/23 30/31/23
f 26/27/24 28/29/24 31/32/24 29/30/24
f 30/31/25 29/30/25 32/33/25 33/34/25
f 29/30/26 31/32/26 34/35/26 32/33/26
f 33/34/27 32/33/27 35/36/27 36/37/27
f 32/33/28 34/35/28 37/38/28 35/36/28
f 36/37/29 35/36/29 38/39/29 39/40/29
f 35/36/30 37/38/30 40/41/30 38/39/30
f 39/40/31 38/39/31 41/42/31 42/43/31
f 38/39/32 40/41/32 43/44/32 41/42/32
f 42/43/33 41/42/33 44/45/33 45/46/33
f 41/42/34 43/44/34 46/47/34 44/45/34
f 45/46/35 44/45/35 47/48/35 48/49/35
f 44/45/36 46/47/36 49/50/36 47/48/36
f 48/49/37 47/48/37 50/51/37 51/52/37
f 47/48/38 49/50/38 52/53/38 50/51/38
f 51/52/39 50/51/39 53/54/39 54/55/39
f 50/51/40 52/53/40 55/56/40 53/54/40
f 54/55/41 53/54/41 56/57/41 57/58/41
f 53/54/42 55/56/42 58/59/42 56/57/42
f 57/58/43 56/57/43 59/60/43 60/61/43
f 56/57/44 58/59/44 61/62/44 59/60/44
f 60/61/45 59/60/45 62/63/45 63/64/45
f 59/60/46 61/62/46 64/65/46 62/63/46
f 63/64/47 62/63/47 65/66/47 66/67/47
f 62/63/48 64/65/48 67/68/48 65/66/48
f 66/67/49 65/66/49 68/69/49 69/70/49
f 65/66/50 67/68/50 70/71/50 68/69/50
f 69/70/51 68/69/51 71/72/51 72/73/51
f 68/69/52 70/71/52 73/74/52 71/72/52
f 72/73/53 71/72/53 74/75/53 75/76/53
f 71/72/54 73/74/54 76/77/54 74/75/54
f 78/78/55 75/76/55 74/75/55 77/79/55
f 77/79/56 74/75/56 76/77/56 79/80/56
f 79/80/57 76/77/57 81/81/57 80/82/57
f 80/82/58 81/81/58 83/83/58 82/84/58
f 82/84/59 83/83/59 75/76/59 78/78/59
f 84/85/60 72/73/60 75/76/60 83/83/60
f 86/86/61 84/85/61 83/83/61 81/81/61
f 85/87/62 69/70/62 72/73/62 84/85/62
f 87/88/63 85/87/63 84/85/63 86/86/63
f 73/74/64 86/86/64 81/81/64 76/77/64
f 70/71/65 87/88/65 86/86/65 73/74/65
f 67/68/66 88/89/66 87/88/66 70/71/66
f 88/89/67 90/90/67 85/87/67 87/88/67
f 64/65/68 89/91/68 88/89/68 67/68/68
f 89/91/69 91/92/69 90/90/69 88/89/69
f 90/90/70 66/67/70 69/70/70 85/87/70
f 91/92/71 63/64/71 66/67/71 90/90/71
f 92/93/72 60/61/72 63/64/72 91/92/72
f 94/94/73 92/93/73 91/92/73 89/91/73
f 93/95/74 57/58/74 60/61/74 92/93/74
f 95/96/75 93/95/75 92/93/75 94/94/75
f 61/62/76 94/94/76 89/91/76 64/65/76
f 58/59/77 95/96/77 94/94/77 61/62/77
f 55/56/78 96/97/78 95/96/78 58/59/78
f 96/97/79 98/98/79 93/95/79 95/96/79
f 52/53/80 97/99/80 96/97/80 55/56/80
f 97/99/81 99/100/81 98/98/81 96/97/81
f 98/98/82 54/55/82 57/58/82 93/95/82
f 99/100/83 51/52/83 54/55/83 98/98/83
f 100/101/84 48/49/84 51/52/84 99/100/84
f 102/102/85 100/101/85 99/100/85 97/99/85
f 101/103/86 45/46/86 48/49/86 100/101/86
f 103/104/87 101/103/87 100/101/87 102/102/87
f 49/50/88 102/102/88 97/99/88 52/53/88
f 46/47/89 103/104/89 102/102/89 49/50/89
f 43/44/90 104/105/90 103/104/90 46/47/90
f 104/105/91 106/106/91 101/103/91 103/104/91
f 40/41/92 105/107/92 104/105/92 43/44/92
f 105/107/93 107/108/93 106/106/93 104/105/93
f 106/106/94 42/43/94 45/46/94 101/103/94
f 107/108/95 39/40/95 42/43/95 106/106/95
f 108/109/96 36/37/96 39/40/96 107/108/96
f 110/110/97 108/109/97 107/108/97 105/107/97
f 109/111/98 33/34/98 36/37/98 108/109/98
f 111/112/99 109/111/99 108/109/99 110/110/99
f 37/38/100 110/110/100 105/107/100 40/41/100
f 34/35/101 111/112/101 110/110/101 37/38/101
f 31/32/102 112/113/102 111/112/102 34/35/102
f 112/113/103 114/114/103 109/111/103 111/112/103
f 28/29/104 113/115/104 112/113/104 31/32/104
f 113/115/105 115/116/105 114/114/105 112/113/105
f 114/114/106 30/31/106 33/34/106 109/111/106
f 115/116/107 27/28/107 30/31/107 114/114/107
f 116/117/108 24/25/108 27/28/108 115/116/108
f 118/118/109 116/117/109 115/116/109 113/115/109
f 117/119/110 21/22/110 24/25/110 116/117/110
f 119/120/111 117/119/111 116/117/111 118/118/111
f 25/26/112 118/118/112 113/115/112 28/29/112
f 22/23/113 119/120/113 118/118/113 25/26/113
f 19/20/114 120/121/114 119/120/114 22/23/114
f 120/121/115 122/122/115 117/119/115 119/120/115
f 16/17/116 121/123/116 120/121/116 19/20/116
f 121/123/117 123/124/117 122/122/117 120/121/117
f 122/122/118 18/19/118 21/22/118 117/119/118
f 123/124/119 15/16/119 18/19/119 122/122/119
f 124/125/120 12/13/120 15/16/120 123/124/120
f 125/126/121 124/125/121 123/124/121 121/123/121
f 4/4/122 2/3/122 12/13/122 124/125/122
f 6/7/123 4/4/123 124/125/123 125/126/123
f 8/10/124 6/7/124 125/126/124 13/14/124
f 13/14/125 125/126/125 121/123/125 16/17/125
