{
  "accessors": [
    {
      "bufferView": 2,
      "componentType": 5126,
      "count": 168,
      "max": [
        13.578603744506836,
        24.588369369506836,
        12.0485258102417
      ],
      "min": [
        -10.386075973510742,
        0.6223122477531433,
        -11.916154861450195
      ],
      "type": "VEC3"
    },
    {
      "bufferView": 2,
      "byteOffset": 2016,
      "componentType": 5126,
      "count": 168,
      "max": [
        1.0,
        1.0,
        1.0
      ],
      "min": [
        -1.0,
        -1.0,
        -1.0
      ],
      "type": "VEC3"
    },
    {
      "bufferView": 1,
      "componentType": 5126,
      "count": 168,
      "max": [
        1.0,
        1.0
      ],
      "min": [
        0.0,
        0.0
      ],
      "type": "VEC2"
    },
    {
      "bufferView": 0,
      "componentType": 5125,
      "count": 324,
      "type": "SCALAR"
    },
    {
      "bufferView": 2,
      "byteOffset": 4032,
      "componentType": 5126,
      "count": 168,
      "max": [
        13.578603744506836,
        24.588369369506836,
        12.0485258102417
      ],
      "min": [
        -10.386075973510742,
        0.6223122477531433,
        -11.916154861450195
      ],
      "type": "VEC3"
    },
    {
      "bufferView": 2,
      "byteOffset": 6048,
      "componentType": 5126,
      "count": 168,
      "max": [
        1.0,
        1.0,
        1.0
      ],
      "min": [
        -1.0,
        -1.0,
        -1.0
      ],
      "type": "VEC3"
    },
    {
      "bufferView": 1,
      "byteOffset": 1344,
      "componentType": 5126,
      "count": 168,
      "max": [
        1.0,
        1.0
      ],
      "min": [
        0.0,
        0.0
      ],
      "type": "VEC2"
    },
    {
      "bufferView": 0,
      "byteOffset": 1296,
      "componentType": 5125,
      "count": 324,
      "type": "SCALAR"
    },
    {
      "bufferView": 2,
      "byteOffset": 8064,
      "componentType": 5126,
      "count": 168,
      "max": [
        -0.7575646042823792,
        23.942575454711914,
        1.822422981262207
      ],
      "min": [
        -24.722246170043945,
        -0.023482546210289,
        -22.142257690429688
      ],
      "type": "VEC3"
    },
    {
      "bufferView": 2,
      "byteOffset": 10080,
      "componentType": 5126,
      "count": 168,
      "max": [
        1.0,
        1.0,
        1.0
      ],
      "min": [
        -1.0,
        -1.0,
        -1.0
      ],
      "type": "VEC3"
    },
    {
      "bufferView": 1,
      "byteOffset": 2688,
      "componentType": 5126,
      "count": 168,
      "max": [
        1.0,
        1.0
      ],
      "min": [
        0.0,
        0.0
      ],
      "type": "VEC2"
    },
    {
      "bufferView": 0,
      "byteOffset": 2592,
      "componentType": 5125,
      "count": 324,
      "type": "SCALAR"
    }
  ],
  "asset": {
    "extras": {
      "author": "Sophie (https://sketchfab.com/scoppock)",
      "license": "CC-BY-4.0 (http://creativecommons.org/licenses/by/4.0/)",
      "source": "https://sketchfab.com/3d-models/sanrio-crates-a438bd93f65f4878b8922bb19c0775d6",
      "title": "Sanrio Crates"
    },
    "generator": "Sketchfab-12.66.0",
    "version": "2.0"
  },
  "bufferViews": [
    {
      "buffer": 0,
      "byteLength": 3888,
      "name": "floatBufferViews",
      "target": 34963
    },
    {
      "buffer": 0,
      "byteLength": 4032,
      "byteOffset": 3888,
      "byteStride": 8,
      "name": "floatBufferViews",
      "target": 34962
    },
    {
      "buffer": 0,
      "byteLength": 12096,
      "byteOffset": 7920,
      "byteStride": 12,
      "name": "floatBufferViews",
      "target": 34962
    }
  ],
  "buffers": [
    {
      "byteLength": 20016,
      "uri": "scene.bin"
    }
  ],
  "images": [
    {
      "uri": "textures/lambert1_baseColor.jpeg"
    },
    {
      "uri": "textures/lambert2_baseColor.jpeg"
    },
    {
      "uri": "textures/lambert3_baseColor.jpeg"
    }
  ],
  "materials": [
    {
      "doubleSided": true,
      "name": "lambert1",
      "pbrMetallicRoughness": {
        "baseColorTexture": {
          "index": 0
        },
        "metallicFactor": 0.0,
        "roughnessFactor": 0.6
      }
    },
    {
      "doubleSided": true,
      "name": "lambert2",
      "pbrMetallicRoughness": {
        "baseColorTexture": {
          "index": 1
        },
        "metallicFactor": 0.0,
        "roughnessFactor": 0.6
      }
    },
    {
      "doubleSided": true,
      "name": "lambert3",
      "pbrMetallicRoughness": {
        "baseColorTexture": {
          "index": 2
        },
        "metallicFactor": 0.0,
        "roughnessFactor": 0.768030293782552
      }
    }
  ],
  "meshes": [
    {
      "name": "pCube14_lambert1_0",
      "primitives": [
        {
          "attributes": {
            "NORMAL": 1,
            "POSITION": 0,
            "TEXCOORD_0": 2
          },
          "indices": 3,
          "material": 0,
          "mode": 4
        }
      ]
    },
    {
      "name": "pasted__pCube14_lambert2_0",
      "primitives": [
        {
          "attributes": {
            "NORMAL": 5,
            "POSITION": 4,
            "TEXCOORD_0": 6
          },
          "indices": 7,
          "material": 1,
          "mode": 4
        }
      ]
    },
    {
      "name": "pasted__pCube14_lambert3_0",
      "primitives": [
        {
          "attributes": {
            "NORMAL": 9,
            "POSITION": 8,
            "TEXCOORD_0": 10
          },
          "indices": 11,
          "material": 2,
          "mode": 4
        }
      ]
    }
  ],
  "nodes": [
    {
      "children": [
        1
      ],
      "matrix": [
        1.0,
        0.0,
        0.0,
        0.0,
        0.0,
        2.220446049250313e-16,
        -1.0,
        0.0,
        0.0,
        1.0,
        2.220446049250313e-16,
        0.0,
        0.0,
        0.0,
        0.0,
        1.0
      ],
      "name": "Sketchfab_model"
    },
    {
      "children": [
        2
      ],
      "matrix": [
        1.0,
        0.0,
        0.0,
        0.0,
        0.0,
        0.0,
        1.0,
        0.0,
        0.0,
        -1.0,
        0.0,
        0.0,
        0.0,
        0.0,
        0.0,
        1.0
      ],
      "name": "14ba5af534ad4c76a1a4afe822903ac4.fbx"
    },
    {
      "children": [
        3,
        5,
        8
      ],
      "name": "RootNode"
    },
    {
      "children": [
        4
      ],
      "matrix": [
        -8.729586632183484e-05,
        -0.9999999961897159,
        0.0,
        0.0,
        0.9999999961897159,
        -8.729586632183484e-05,
        0.0,
        0.0,
        0.0,
        0.0,
        1.0,
        0.0,
        -7.645156383514404,
        14.202704429626465,
        0.0,
        1.0
      ],
      "name": "pCube14"
    },
    {
      "mesh": 0,
      "name": "pCube14_lambert1_0"
    },
    {
      "children": [
        6
      ],
      "name": "group"
    },
    {
      "children": [
        7
      ],
      "matrix": [
        0.013267400052822453,
        -0.9999111263865396,
        -0.0013097420509450564,
        0.0,
        0.9950741818446883,
        0.013331891403759899,
        -0.09823254703876176,
        0.0,
        0.09824127809613714,
        -7.91033905045424e-16,
        0.9951626255432011,
        0.0,
        -21.82638931274414,
        37.9915771484375,
        0.007440504152327776,
        1.0
      ],
      "name": "pasted__pCube14"
    },
    {
      "mesh": 1,
      "name": "pasted__pCube14_lambert2_0"
    },
    {
      "children": [
        9
      ],
      "matrix": [
        1.0,
        0.0,
        0.0,
        0.0,
        0.0,
        1.0,
        0.0,
        0.0,
        0.0,
        0.0,
        1.0,
        0.0,
        -14.920929908752441,
        -0.6392235159873962,
        -10.226101875305176,
        1.0
      ],
      "name": "group1"
    },
    {
      "children": [
        10
      ],
      "matrix": [
        0.011376223987210943,
        -0.9999306148904692,
        0.0030572753492462273,
        0.0,
        0.9863637990395377,
        0.011723795972357842,
        0.16416153188944377,
        0.0,
        -0.16418598439599874,
        0.0011480473713344624,
        0.986428732608266,
        0.0,
        -20.387893676757813,
        0.224654421210289,
        16.910490036010742,
        1.0
      ],
      "name": "pasted__pCube14"
    },
    {
      "mesh": 2,
      "name": "pasted__pCube14_lambert3_0"
    }
  ],
  "samplers": [
    {
      "magFilter": 9729,
      "minFilter": 9987,
      "wrapS": 10497,
      "wrapT": 10497
    }
  ],
  "scene": 0,
  "scenes": [
    {
      "name": "Sketchfab_Scene",
      "nodes": [
        0
      ]
    }
  ],
  "textures": [
    {
      "sampler": 0,
      "source": 0
    },
    {
      "sampler": 0,
      "source": 1
    },
    {
      "sampler": 0,
      "source": 2
    }
  ]
}
